<svg viewBox="0 0 40 46" fill="none" xmlns="http://www.w3.org/2000/svg">
  <path d="M18 6 L1 1 L0 13 Z" fill="#38bdf8" opacity="0.2"/>
  <line x1="18" y1="5" x2="2" y2="0" stroke="#38bdf8" stroke-width="1.8" stroke-linecap="round"/>
  <line x1="17" y1="7" x2="0" y2="7" stroke="#38bdf8" stroke-width="1.8" stroke-linecap="round"/>
  <line x1="18" y1="9" x2="2" y2="13" stroke="#38bdf8" stroke-width="1.8" stroke-linecap="round"/>
  <rect x="14" y="2.5" width="12" height="7" rx="2" fill="#38bdf8"/>
  <circle cx="20" cy="6" r="2.2" fill="white"/>
  <rect x="18" y="9.5" width="4" height="17" rx="1" fill="#38bdf8"/>
  <rect x="7" y="26.5" width="26" height="2.5" rx="1.25" fill="#38bdf8"/>
  <path d="M7 29 Q20 39 33 29" stroke="#38bdf8" stroke-width="2.5" stroke-linecap="round"/>
  <path d="M2 41 Q7 38 12 41 Q17 44 22 41 Q27 38 32 41 Q37 44 38 41" stroke="#38bdf8" stroke-width="1.5" stroke-linecap="round" opacity="0.5"/>
</svg>
