<svg viewBox="0 0 56 52" fill="none" xmlns="http://www.w3.org/2000/svg">
  <path d="M22 7 L2 2 L2 18 Z" fill="#38bdf8" opacity="0.2"/>
  <path d="M34 7 L54 2 L54 18 Z" fill="#38bdf8" opacity="0.2"/>
  <line x1="22" y1="7" x2="2" y2="2" stroke="#38bdf8" stroke-width="2" stroke-linecap="round"/>
  <line x1="22" y1="7" x2="2" y2="18" stroke="#38bdf8" stroke-width="1.5" stroke-linecap="round" opacity="0.7"/>
  <line x1="34" y1="7" x2="54" y2="2" stroke="#38bdf8" stroke-width="2" stroke-linecap="round"/>
  <line x1="34" y1="7" x2="54" y2="18" stroke="#38bdf8" stroke-width="1.5" stroke-linecap="round" opacity="0.7"/>
  <rect x="18" y="2" width="20" height="10" rx="2.5" fill="#38bdf8"/>
  <circle cx="28" cy="7" r="3" fill="white"/>
  <rect x="26" y="12" width="4" height="16" rx="1" fill="#38bdf8"/>
  <rect x="12" y="28" width="32" height="2.5" rx="1.25" fill="#38bdf8"/>
  <path d="M12 30.5 Q28 41 44 30.5" stroke="#38bdf8" stroke-width="2.5" stroke-linecap="round"/>
  <path d="M4 44 Q9 41 14 44 Q19 47 24 44 Q29 41 34 44 Q39 47 44 44 Q49 41 52 44" stroke="#38bdf8" stroke-width="1.5" stroke-linecap="round" opacity="0.5"/>
</svg>
