<svg viewBox="-2 -4 54 52" fill="none" xmlns="http://www.w3.org/2000/svg">
  <line x1="18" y1="4" x2="2"  y2="-1" stroke="#38bdf8" stroke-width="1.2" stroke-linecap="round"/>
  <line x1="17" y1="5" x2="0"  y2="5"  stroke="#38bdf8" stroke-width="1.2" stroke-linecap="round"/>
  <line x1="18" y1="7" x2="2"  y2="14" stroke="#38bdf8" stroke-width="1.2" stroke-linecap="round"/>
  <line x1="32" y1="4" x2="48" y2="-1" stroke="#38bdf8" stroke-width="1.2" stroke-linecap="round"/>
  <line x1="33" y1="5" x2="50" y2="5"  stroke="#38bdf8" stroke-width="1.2" stroke-linecap="round"/>
  <line x1="32" y1="7" x2="48" y2="14" stroke="#38bdf8" stroke-width="1.2" stroke-linecap="round"/>
  <path d="M21 3 L20 23 L30 23 L29 3 Z" stroke="#38bdf8" stroke-width="1.5" stroke-linejoin="round" fill="none"/>
  <line x1="6" y1="23" x2="44" y2="23" stroke="#38bdf8" stroke-width="1.5" stroke-linecap="round"/>
  <path d="M6 23 C8 27 14 33 25 35 C36 33 42 27 44 23" stroke="#38bdf8" stroke-width="1.5" stroke-linecap="round" fill="none"/>
  <path d="M2 40 C6 37 10 43 14 40 C18 37 22 43 26 40 C30 37 34 43 38 40 C42 37 46 41 49 40" stroke="#38bdf8" stroke-width="1.5" stroke-linecap="round" fill="none"/>
  <path d="M0 44 C5 41 9 46 14 44 C19 41 23 46 28 44 C33 41 37 46 42 44 C46 42 49 44 50 44" stroke="#38bdf8" stroke-width="1" stroke-linecap="round" fill="none" opacity="0.4"/>
</svg>
